<svg id="svg" version="1.1" xmlns="http://www.w3.org/2000/svg" xmlns:xlink="http://www.w3.org/1999/xlink" width="400" height="400" viewBox="0, 0, 400,400"><g id="svgg"><path id="path0" d="M71.467 81.067 C 71.083 81.450,71.148 308.100,71.532 308.704 C 71.784 309.100,76.312 309.185,92.826 309.104 L 113.800 309.000 114.000 288.338 L 114.200 267.676 115.371 266.338 C 117.044 264.427,125.709 254.683,126.194 254.169 C 126.417 253.931,128.127 251.991,129.994 249.857 C 134.364 244.863,133.665 244.545,138.570 253.763 C 139.517 255.543,141.058 258.440,141.994 260.200 C 142.930 261.960,144.186 264.300,144.786 265.400 C 145.385 266.500,146.829 269.200,147.995 271.400 C 150.358 275.859,152.362 279.600,153.993 282.600 C 154.592 283.700,156.035 286.400,157.200 288.600 C 158.365 290.800,159.713 293.320,160.195 294.200 C 160.678 295.080,162.304 298.140,163.810 301.000 C 165.315 303.860,166.966 306.875,167.478 307.700 L 168.410 309.200 194.805 309.200 C 211.933 309.200,221.200 309.061,221.200 308.805 C 221.200 308.587,219.125 304.701,216.588 300.170 C 214.051 295.638,211.318 290.731,210.515 289.265 C 209.711 287.799,208.547 285.737,207.927 284.682 C 207.307 283.628,206.800 282.691,206.800 282.600 C 206.800 282.509,206.292 281.572,205.671 280.518 C 205.050 279.463,202.737 275.360,200.530 271.400 C 198.324 267.440,196.042 263.345,195.459 262.300 C 194.877 261.255,193.950 259.590,193.400 258.600 C 192.165 256.377,191.639 255.434,184.699 243.000 C 181.629 237.500,178.571 232.010,177.904 230.800 C 177.237 229.590,176.020 227.430,175.200 226.000 C 174.380 224.570,173.117 222.320,172.393 221.000 C 171.669 219.680,169.921 216.559,168.509 214.066 C 167.097 211.572,166.023 209.322,166.122 209.066 C 166.272 208.683,174.205 199.535,192.085 179.127 C 193.302 177.737,197.046 173.450,200.405 169.600 C 203.763 165.750,207.537 161.430,208.792 160.000 C 210.046 158.570,214.382 153.620,218.428 149.000 C 222.473 144.380,226.102 140.251,226.491 139.825 C 226.881 139.398,227.200 138.903,227.200 138.725 C 227.200 138.546,217.435 138.400,205.500 138.400 C 170.012 138.400,173.680 136.421,145.069 171.000 C 142.885 173.640,140.422 176.610,139.597 177.600 C 138.771 178.590,136.164 181.740,133.804 184.600 C 131.443 187.460,128.834 190.610,128.005 191.600 C 127.176 192.590,125.017 195.200,123.206 197.400 C 121.395 199.600,119.527 201.850,119.054 202.400 C 118.582 202.950,117.500 204.255,116.650 205.300 C 113.779 208.828,114.000 213.935,114.000 144.000 L 114.000 80.800 92.867 80.800 C 81.243 80.800,71.613 80.920,71.467 81.067 " stroke="none" fill="#040404" fill-rule="evenodd"></path><path id="path1" d="M317.476 141.300 C 316.703 142.895,310.094 156.260,302.790 171.000 C 295.486 185.740,287.374 202.165,284.763 207.500 C 281.910 213.330,279.791 217.200,279.453 217.200 C 279.143 217.200,278.124 215.715,277.188 213.900 C 276.253 212.085,274.096 207.900,272.396 204.600 C 270.696 201.300,267.682 195.450,265.699 191.600 C 263.715 187.750,260.704 181.900,259.006 178.600 C 243.922 149.270,242.734 147.323,240.986 149.071 C 240.636 149.421,237.259 153.239,233.481 157.554 C 229.704 161.869,226.520 165.490,226.406 165.600 C 226.292 165.710,225.030 167.150,223.600 168.800 C 222.170 170.450,220.905 171.890,220.788 172.000 C 219.202 173.490,212.400 181.652,212.400 182.065 C 212.400 182.371,212.640 182.977,212.933 183.411 C 213.227 183.845,214.829 186.810,216.495 190.000 C 219.580 195.910,221.003 198.612,224.393 205.000 C 227.720 211.268,233.223 221.661,235.300 225.600 C 236.402 227.690,238.068 230.840,239.002 232.600 C 239.936 234.360,241.735 237.780,243.000 240.200 C 244.265 242.620,245.612 245.140,245.995 245.800 C 246.377 246.460,248.091 249.700,249.803 253.000 C 251.515 256.300,253.404 259.900,253.999 261.000 C 254.594 262.100,255.986 264.710,257.093 266.800 C 258.199 268.890,260.631 273.480,262.497 277.000 C 264.363 280.520,267.019 285.560,268.400 288.200 C 269.781 290.840,271.402 293.900,272.001 295.000 C 272.601 296.100,274.311 299.340,275.802 302.200 C 278.813 307.979,279.197 308.575,279.616 308.117 C 279.776 307.943,281.119 305.460,282.602 302.600 C 284.085 299.740,286.424 295.240,287.800 292.600 C 289.176 289.960,291.786 284.920,293.600 281.400 C 295.414 277.880,298.022 272.840,299.396 270.200 C 300.770 267.560,303.247 262.790,304.900 259.600 C 306.554 256.410,309.097 251.506,310.553 248.702 C 312.008 245.899,314.480 241.129,316.046 238.102 C 317.611 235.076,320.019 230.440,321.397 227.800 C 322.774 225.160,325.386 220.120,327.200 216.600 C 329.014 213.080,331.622 208.040,332.996 205.400 C 335.828 199.959,340.145 191.634,344.404 183.400 C 347.361 177.684,350.545 171.553,354.997 163.000 C 356.371 160.360,359.256 154.780,361.407 150.600 C 363.559 146.420,365.709 142.280,366.186 141.400 C 367.995 138.064,370.569 138.400,343.228 138.400 L 318.882 138.400 317.476 141.300 " stroke="none" fill="#0584d4" fill-rule="evenodd"></path><path id="path2" d="M175.200 0.280 C 173.551 0.368,172.030 0.610,171.820 0.820 C 171.611 1.029,170.407 1.200,169.144 1.200 C 167.881 1.200,166.736 1.380,166.600 1.600 C 166.464 1.820,165.474 2.000,164.400 2.000 C 163.326 2.000,162.336 2.180,162.200 2.400 C 162.064 2.620,161.164 2.800,160.200 2.800 C 159.236 2.800,158.336 2.980,158.200 3.200 C 158.064 3.420,157.254 3.600,156.400 3.600 C 155.546 3.600,154.736 3.780,154.600 4.000 C 154.464 4.220,153.744 4.400,153.000 4.400 C 152.256 4.400,151.536 4.580,151.400 4.800 C 151.264 5.020,150.533 5.200,149.776 5.200 C 149.019 5.200,148.400 5.380,148.400 5.600 C 148.400 5.820,147.781 6.000,147.024 6.000 C 146.267 6.000,145.536 6.180,145.400 6.400 C 145.264 6.620,144.623 6.800,143.976 6.800 C 143.329 6.800,142.800 6.980,142.800 7.200 C 142.800 7.420,142.271 7.600,141.624 7.600 C 140.977 7.600,140.336 7.780,140.200 8.000 C 140.064 8.220,139.639 8.400,139.255 8.400 C 138.530 8.400,130.553 10.892,128.800 11.666 C 128.250 11.908,127.395 12.263,126.900 12.454 C 126.405 12.644,125.505 13.004,124.900 13.254 C 124.295 13.503,123.395 13.863,122.900 14.054 C 122.405 14.244,121.595 14.556,121.100 14.747 C 120.605 14.938,119.050 15.658,117.644 16.347 C 116.238 17.036,114.843 17.600,114.544 17.600 C 114.245 17.600,114.000 17.780,114.000 18.000 C 114.000 18.220,113.640 18.400,113.200 18.400 C 112.760 18.400,112.400 18.580,112.400 18.800 C 112.400 19.020,112.040 19.200,111.600 19.200 C 111.160 19.200,110.800 19.380,110.800 19.600 C 110.800 19.820,110.440 20.000,110.000 20.000 C 109.560 20.000,109.200 20.180,109.200 20.400 C 109.200 20.620,108.840 20.800,108.400 20.800 C 107.960 20.800,107.600 20.980,107.600 21.200 C 107.600 21.420,107.255 21.600,106.833 21.600 C 106.412 21.600,106.007 21.735,105.933 21.900 C 105.813 22.170,103.711 23.378,101.303 24.560 C 100.810 24.802,100.405 25.135,100.403 25.300 C 100.401 25.465,100.140 25.600,99.823 25.600 C 98.938 25.600,85.749 33.851,82.873 36.205 C 82.503 36.508,81.030 37.620,79.600 38.678 C 76.938 40.645,75.857 41.486,75.055 42.212 C 74.805 42.439,73.430 43.513,72.000 44.598 C 70.570 45.683,68.950 47.029,68.400 47.590 C 67.850 48.151,66.770 49.116,66.000 49.735 C 63.906 51.418,52.593 62.676,50.460 65.200 C 49.437 66.410,48.143 67.850,47.585 68.400 C 47.027 68.950,45.679 70.570,44.590 72.000 C 42.540 74.691,41.691 75.764,40.993 76.545 C 40.768 76.795,39.723 78.170,38.670 79.600 C 37.617 81.030,36.508 82.503,36.205 82.873 C 33.851 85.749,25.600 98.938,25.600 99.823 C 25.600 100.140,25.465 100.401,25.300 100.403 C 25.135 100.405,24.802 100.810,24.560 101.303 C 23.378 103.711,22.170 105.813,21.900 105.933 C 21.735 106.007,21.600 106.412,21.600 106.833 C 21.600 107.255,21.420 107.600,21.200 107.600 C 20.980 107.600,20.800 107.960,20.800 108.400 C 20.800 108.840,20.620 109.200,20.400 109.200 C 20.180 109.200,20.000 109.560,20.000 110.000 C 20.000 110.440,19.820 110.800,19.600 110.800 C 19.380 110.800,19.200 111.160,19.200 111.600 C 19.200 112.040,19.020 112.400,18.800 112.400 C 18.580 112.400,18.400 112.760,18.400 113.200 C 18.400 113.640,18.220 114.000,18.000 114.000 C 17.780 114.000,17.600 114.245,17.600 114.544 C 17.600 114.843,17.036 116.238,16.347 117.644 C 15.169 120.048,14.788 120.915,13.946 123.100 C 13.756 123.595,13.420 124.450,13.200 125.000 C 12.980 125.550,12.620 126.450,12.400 127.000 C 12.180 127.550,11.825 128.405,11.612 128.900 C 10.853 130.661,8.400 138.569,8.400 139.255 C 8.400 139.639,8.220 140.064,8.000 140.200 C 7.780 140.336,7.600 140.977,7.600 141.624 C 7.600 142.271,7.420 142.800,7.200 142.800 C 6.980 142.800,6.800 143.329,6.800 143.976 C 6.800 144.623,6.620 145.264,6.400 145.400 C 6.180 145.536,6.000 146.267,6.000 147.024 C 6.000 147.781,5.820 148.400,5.600 148.400 C 5.380 148.400,5.200 149.019,5.200 149.776 C 5.200 150.533,5.020 151.264,4.800 151.400 C 4.580 151.536,4.400 152.256,4.400 153.000 C 4.400 153.744,4.220 154.464,4.000 154.600 C 3.780 154.736,3.600 155.546,3.600 156.400 C 3.600 157.254,3.420 158.064,3.200 158.200 C 2.980 158.336,2.800 159.236,2.800 160.200 C 2.800 161.164,2.620 162.064,2.400 162.200 C 2.180 162.336,2.000 163.326,2.000 164.400 C 2.000 165.474,1.820 166.464,1.600 166.600 C 1.380 166.736,1.200 167.881,1.200 169.144 C 1.200 170.447,0.984 171.656,0.700 171.940 C -0.030 172.670,-0.030 227.330,0.700 228.060 C 0.984 228.344,1.200 229.553,1.200 230.856 C 1.200 232.119,1.380 233.264,1.600 233.400 C 1.820 233.536,2.000 234.526,2.000 235.600 C 2.000 236.674,2.180 237.664,2.400 237.800 C 2.620 237.936,2.800 238.836,2.800 239.800 C 2.800 240.764,2.980 241.664,3.200 241.800 C 3.420 241.936,3.600 242.746,3.600 243.600 C 3.600 244.454,3.780 245.264,4.000 245.400 C 4.220 245.536,4.400 246.256,4.400 247.000 C 4.400 247.744,4.580 248.464,4.800 248.600 C 5.020 248.736,5.200 249.467,5.200 250.224 C 5.200 250.981,5.380 251.600,5.600 251.600 C 5.820 251.600,6.000 252.219,6.000 252.976 C 6.000 253.733,6.180 254.464,6.400 254.600 C 6.620 254.736,6.800 255.377,6.800 256.024 C 6.800 256.671,6.980 257.200,7.200 257.200 C 7.420 257.200,7.600 257.729,7.600 258.376 C 7.600 259.023,7.780 259.664,8.000 259.800 C 8.220 259.936,8.400 260.361,8.400 260.745 C 8.400 261.431,10.853 269.339,11.612 271.100 C 12.165 272.383,12.851 274.054,13.254 275.100 C 13.444 275.595,13.780 276.450,14.000 277.000 C 14.220 277.550,14.556 278.405,14.747 278.900 C 14.938 279.395,15.658 280.950,16.347 282.356 C 17.036 283.762,17.600 285.157,17.600 285.456 C 17.600 285.755,17.780 286.000,18.000 286.000 C 18.220 286.000,18.400 286.360,18.400 286.800 C 18.400 287.240,18.580 287.600,18.800 287.600 C 19.020 287.600,19.200 287.960,19.200 288.400 C 19.200 288.840,19.380 289.200,19.600 289.200 C 19.820 289.200,20.000 289.560,20.000 290.000 C 20.000 290.440,20.180 290.800,20.400 290.800 C 20.620 290.800,20.800 291.160,20.800 291.600 C 20.800 292.040,20.980 292.400,21.200 292.400 C 21.420 292.400,21.600 292.745,21.600 293.167 C 21.600 293.588,21.735 293.993,21.900 294.067 C 22.170 294.187,23.378 296.289,24.560 298.697 C 24.802 299.190,25.135 299.595,25.300 299.597 C 25.465 299.599,25.600 299.860,25.600 300.177 C 25.600 301.062,33.851 314.251,36.205 317.127 C 36.508 317.497,37.620 318.970,38.678 320.400 C 40.645 323.062,41.486 324.143,42.212 324.945 C 42.439 325.195,43.513 326.570,44.598 328.000 C 45.683 329.430,47.029 331.050,47.590 331.600 C 48.151 332.150,49.116 333.230,49.735 334.000 C 51.418 336.094,62.676 347.407,65.200 349.540 C 66.410 350.563,67.850 351.857,68.400 352.415 C 68.950 352.973,70.570 354.321,72.000 355.410 C 74.691 357.460,75.764 358.309,76.545 359.007 C 76.795 359.232,78.170 360.277,79.600 361.330 C 81.030 362.383,82.503 363.492,82.873 363.795 C 85.749 366.149,98.938 374.400,99.823 374.400 C 100.140 374.400,100.401 374.535,100.403 374.700 C 100.405 374.865,100.810 375.198,101.303 375.440 C 103.711 376.622,105.813 377.830,105.933 378.100 C 106.007 378.265,106.412 378.400,106.833 378.400 C 107.255 378.400,107.600 378.580,107.600 378.800 C 107.600 379.020,107.960 379.200,108.400 379.200 C 108.840 379.200,109.200 379.380,109.200 379.600 C 109.200 379.820,109.560 380.000,110.000 380.000 C 110.440 380.000,110.800 380.180,110.800 380.400 C 110.800 380.620,111.160 380.800,111.600 380.800 C 112.040 380.800,112.400 380.980,112.400 381.200 C 112.400 381.420,112.760 381.600,113.200 381.600 C 113.640 381.600,114.000 381.780,114.000 382.000 C 114.000 382.220,114.245 382.400,114.544 382.400 C 114.843 382.400,116.238 382.964,117.644 383.653 C 119.050 384.342,120.560 385.038,121.000 385.199 C 121.440 385.361,122.340 385.721,123.000 386.000 C 124.318 386.557,125.716 387.121,127.100 387.654 C 127.595 387.844,128.405 388.175,128.900 388.388 C 130.661 389.147,138.569 391.600,139.255 391.600 C 139.639 391.600,140.064 391.780,140.200 392.000 C 140.336 392.220,140.977 392.400,141.624 392.400 C 142.271 392.400,142.800 392.580,142.800 392.800 C 142.800 393.020,143.329 393.200,143.976 393.200 C 144.623 393.200,145.264 393.380,145.400 393.600 C 145.536 393.820,146.267 394.000,147.024 394.000 C 147.781 394.000,148.400 394.180,148.400 394.400 C 148.400 394.620,149.019 394.800,149.776 394.800 C 150.533 394.800,151.264 394.980,151.400 395.200 C 151.536 395.420,152.256 395.600,153.000 395.600 C 153.744 395.600,154.464 395.780,154.600 396.000 C 154.736 396.220,155.546 396.400,156.400 396.400 C 157.254 396.400,158.064 396.580,158.200 396.800 C 158.336 397.020,159.236 397.200,160.200 397.200 C 161.164 397.200,162.064 397.380,162.200 397.600 C 162.336 397.820,163.326 398.000,164.400 398.000 C 165.474 398.000,166.464 398.180,166.600 398.400 C 166.736 398.620,167.881 398.800,169.144 398.800 C 170.447 398.800,171.656 399.016,171.940 399.300 C 172.330 399.690,178.485 399.800,200.000 399.800 C 221.515 399.800,227.670 399.690,228.060 399.300 C 228.344 399.016,229.553 398.800,230.856 398.800 C 232.119 398.800,233.264 398.620,233.400 398.400 C 233.536 398.180,234.526 398.000,235.600 398.000 C 236.674 398.000,237.664 397.820,237.800 397.600 C 237.936 397.380,238.836 397.200,239.800 397.200 C 240.764 397.200,241.664 397.020,241.800 396.800 C 241.936 396.580,242.746 396.400,243.600 396.400 C 244.454 396.400,245.264 396.220,245.400 396.000 C 245.536 395.780,246.256 395.600,247.000 395.600 C 247.744 395.600,248.464 395.420,248.600 395.200 C 248.736 394.980,249.467 394.800,250.224 394.800 C 250.981 394.800,251.600 394.620,251.600 394.400 C 251.600 394.180,252.219 394.000,252.976 394.000 C 253.733 394.000,254.464 393.820,254.600 393.600 C 254.736 393.380,255.377 393.200,256.024 393.200 C 256.671 393.200,257.200 393.020,257.200 392.800 C 257.200 392.580,257.729 392.400,258.376 392.400 C 259.023 392.400,259.664 392.220,259.800 392.000 C 259.936 391.780,260.361 391.600,260.745 391.600 C 261.470 391.600,269.447 389.108,271.200 388.334 C 271.750 388.092,272.605 387.737,273.100 387.546 C 273.595 387.356,274.450 387.020,275.000 386.800 C 275.550 386.580,276.405 386.244,276.900 386.054 C 279.085 385.212,279.952 384.831,282.356 383.653 C 283.762 382.964,285.157 382.400,285.456 382.400 C 285.755 382.400,286.000 382.220,286.000 382.000 C 286.000 381.780,286.360 381.600,286.800 381.600 C 287.240 381.600,287.600 381.420,287.600 381.200 C 287.600 380.980,287.960 380.800,288.400 380.800 C 288.840 380.800,289.200 380.620,289.200 380.400 C 289.200 380.180,289.560 380.000,290.000 380.000 C 290.440 380.000,290.800 379.820,290.800 379.600 C 290.800 379.380,291.160 379.200,291.600 379.200 C 292.040 379.200,292.400 379.020,292.400 378.800 C 292.400 378.580,292.745 378.400,293.167 378.400 C 293.588 378.400,293.993 378.265,294.067 378.100 C 294.187 377.830,296.289 376.622,298.697 375.440 C 299.190 375.198,299.595 374.865,299.597 374.700 C 299.599 374.535,299.860 374.400,300.177 374.400 C 301.062 374.400,314.251 366.149,317.127 363.795 C 317.497 363.492,318.970 362.380,320.400 361.322 C 323.062 359.355,324.143 358.514,324.945 357.788 C 325.195 357.561,326.570 356.487,328.000 355.402 C 329.430 354.317,331.050 352.973,331.600 352.415 C 332.150 351.857,333.590 350.563,334.800 349.540 C 337.324 347.407,348.582 336.094,350.265 334.000 C 350.884 333.230,351.849 332.150,352.410 331.600 C 352.971 331.050,354.321 329.430,355.410 328.000 C 357.460 325.309,358.309 324.236,359.007 323.455 C 359.232 323.205,360.277 321.830,361.330 320.400 C 362.383 318.970,363.492 317.497,363.795 317.127 C 366.149 314.251,374.400 301.062,374.400 300.177 C 374.400 299.860,374.535 299.599,374.700 299.597 C 374.865 299.595,375.198 299.190,375.440 298.697 C 376.622 296.289,377.830 294.187,378.100 294.067 C 378.265 293.993,378.400 293.588,378.400 293.167 C 378.400 292.745,378.580 292.400,378.800 292.400 C 379.020 292.400,379.200 292.040,379.200 291.600 C 379.200 291.160,379.380 290.800,379.600 290.800 C 379.820 290.800,380.000 290.440,380.000 290.000 C 380.000 289.560,380.180 289.200,380.400 289.200 C 380.620 289.200,380.800 288.840,380.800 288.400 C 380.800 287.960,380.980 287.600,381.200 287.600 C 381.420 287.600,381.600 287.240,381.600 286.800 C 381.600 286.360,381.780 286.000,382.000 286.000 C 382.220 286.000,382.400 285.755,382.400 285.456 C 382.400 285.157,382.964 283.762,383.653 282.356 C 384.342 280.950,385.062 279.395,385.253 278.900 C 385.444 278.405,385.756 277.595,385.946 277.100 C 386.137 276.605,386.497 275.705,386.746 275.100 C 386.996 274.495,387.404 273.505,387.654 272.900 C 387.903 272.295,388.258 271.440,388.441 271.000 C 389.198 269.190,391.600 261.392,391.600 260.745 C 391.600 260.361,391.780 259.936,392.000 259.800 C 392.220 259.664,392.400 259.023,392.400 258.376 C 392.400 257.729,392.580 257.200,392.800 257.200 C 393.020 257.200,393.200 256.671,393.200 256.024 C 393.200 255.377,393.380 254.736,393.600 254.600 C 393.820 254.464,394.000 253.733,394.000 252.976 C 394.000 252.219,394.180 251.600,394.400 251.600 C 394.620 251.600,394.800 250.981,394.800 250.224 C 394.800 249.467,394.980 248.736,395.200 248.600 C 395.420 248.464,395.600 247.744,395.600 247.000 C 395.600 246.256,395.780 245.536,396.000 245.400 C 396.220 245.264,396.400 244.454,396.400 243.600 C 396.400 242.746,396.580 241.936,396.800 241.800 C 397.020 241.664,397.200 240.764,397.200 239.800 C 397.200 238.836,397.380 237.936,397.600 237.800 C 397.820 237.664,398.000 236.674,398.000 235.600 C 398.000 234.526,398.180 233.536,398.400 233.400 C 398.620 233.264,398.800 232.119,398.800 230.856 C 398.800 229.553,399.016 228.344,399.300 228.060 C 400.030 227.330,400.030 172.670,399.300 171.940 C 399.016 171.656,398.800 170.447,398.800 169.144 C 398.800 167.881,398.620 166.736,398.400 166.600 C 398.180 166.464,398.000 165.474,398.000 164.400 C 398.000 163.326,397.820 162.336,397.600 162.200 C 397.380 162.064,397.200 161.164,397.200 160.200 C 397.200 159.236,397.020 158.336,396.800 158.200 C 396.580 158.064,396.400 157.254,396.400 156.400 C 396.400 155.546,396.220 154.736,396.000 154.600 C 395.780 154.464,395.600 153.744,395.600 153.000 C 395.600 152.256,395.420 151.536,395.200 151.400 C 394.980 151.264,394.800 150.533,394.800 149.776 C 394.800 149.019,394.620 148.400,394.400 148.400 C 394.180 148.400,394.000 147.781,394.000 147.024 C 394.000 146.267,393.820 145.536,393.600 145.400 C 393.380 145.264,393.200 144.623,393.200 143.976 C 393.200 143.329,393.020 142.800,392.800 142.800 C 392.580 142.800,392.400 142.271,392.400 141.624 C 392.400 140.977,392.220 140.336,392.000 140.200 C 391.780 140.064,391.600 139.639,391.600 139.255 C 391.600 138.608,389.198 130.810,388.441 129.000 C 388.258 128.560,387.879 127.660,387.600 127.000 C 387.321 126.340,386.961 125.440,386.800 125.000 C 386.639 124.560,386.303 123.705,386.054 123.100 C 385.804 122.495,385.444 121.595,385.253 121.100 C 385.062 120.605,384.342 119.050,383.653 117.644 C 382.964 116.238,382.400 114.843,382.400 114.544 C 382.400 114.245,382.220 114.000,382.000 114.000 C 381.780 114.000,381.600 113.640,381.600 113.200 C 381.600 112.760,381.420 112.400,381.200 112.400 C 380.980 112.400,380.800 112.040,380.800 111.600 C 380.800 111.160,380.620 110.800,380.400 110.800 C 380.180 110.800,380.000 110.440,380.000 110.000 C 380.000 109.560,379.820 109.200,379.600 109.200 C 379.380 109.200,379.200 108.840,379.200 108.400 C 379.200 107.960,379.020 107.600,378.800 107.600 C 378.580 107.600,378.400 107.255,378.400 106.833 C 378.400 106.412,378.265 106.007,378.100 105.933 C 377.830 105.813,376.622 103.711,375.440 101.303 C 375.198 100.810,374.865 100.405,374.700 100.403 C 374.535 100.401,374.400 100.140,374.400 99.823 C 374.400 98.938,366.149 85.749,363.795 82.873 C 363.492 82.503,362.380 81.030,361.322 79.600 C 359.355 76.938,358.514 75.857,357.788 75.055 C 357.561 74.805,356.487 73.430,355.402 72.000 C 354.317 70.570,352.971 68.950,352.410 68.400 C 351.849 67.850,350.884 66.770,350.265 66.000 C 348.582 63.906,337.324 52.593,334.800 50.460 C 333.590 49.437,332.150 48.143,331.600 47.585 C 331.050 47.027,329.430 45.679,328.000 44.590 C 325.309 42.540,324.236 41.691,323.455 40.993 C 323.205 40.768,321.830 39.723,320.400 38.670 C 318.970 37.617,317.497 36.508,317.127 36.205 C 314.251 33.851,301.062 25.600,300.177 25.600 C 299.860 25.600,299.599 25.465,299.597 25.300 C 299.595 25.135,299.190 24.802,298.697 24.560 C 296.289 23.378,294.187 22.170,294.067 21.900 C 293.993 21.735,293.588 21.600,293.167 21.600 C 292.745 21.600,292.400 21.420,292.400 21.200 C 292.400 20.980,292.040 20.800,291.600 20.800 C 291.160 20.800,290.800 20.620,290.800 20.400 C 290.800 20.180,290.440 20.000,290.000 20.000 C 289.560 20.000,289.200 19.820,289.200 19.600 C 289.200 19.380,288.840 19.200,288.400 19.200 C 287.960 19.200,287.600 19.020,287.600 18.800 C 287.600 18.580,287.240 18.400,286.800 18.400 C 286.360 18.400,286.000 18.220,286.000 18.000 C 286.000 17.780,285.755 17.600,285.456 17.600 C 285.157 17.600,283.762 17.036,282.356 16.347 C 279.910 15.149,278.759 14.644,277.000 14.000 C 276.560 13.839,275.660 13.479,275.000 13.200 C 274.340 12.921,273.395 12.537,272.900 12.346 C 272.405 12.156,271.595 11.825,271.100 11.612 C 269.339 10.853,261.431 8.400,260.745 8.400 C 260.361 8.400,259.936 8.220,259.800 8.000 C 259.664 7.780,259.023 7.600,258.376 7.600 C 257.729 7.600,257.200 7.420,257.200 7.200 C 257.200 6.980,256.671 6.800,256.024 6.800 C 255.377 6.800,254.736 6.620,254.600 6.400 C 254.464 6.180,253.733 6.000,252.976 6.000 C 252.219 6.000,251.600 5.820,251.600 5.600 C 251.600 5.380,250.981 5.200,250.224 5.200 C 249.467 5.200,248.736 5.020,248.600 4.800 C 248.464 4.580,247.744 4.400,247.000 4.400 C 246.256 4.400,245.536 4.220,245.400 4.000 C 245.264 3.780,244.454 3.600,243.600 3.600 C 242.746 3.600,241.936 3.420,241.800 3.200 C 241.664 2.980,240.764 2.800,239.800 2.800 C 238.836 2.800,237.936 2.620,237.800 2.400 C 237.664 2.180,236.674 2.000,235.600 2.000 C 234.526 2.000,233.536 1.820,233.400 1.600 C 233.264 1.380,232.119 1.200,230.856 1.200 C 229.553 1.200,228.344 0.984,228.060 0.700 C 227.572 0.212,183.151 -0.141,175.200 0.280 M114.167 80.243 C 114.741 80.463,114.800 86.368,114.800 143.043 C 114.800 179.187,114.950 205.600,115.155 205.600 C 115.350 205.600,116.559 204.295,117.842 202.700 C 119.930 200.103,122.984 196.400,125.352 193.596 C 125.819 193.044,127.010 191.606,128.000 190.400 C 128.990 189.194,130.188 187.756,130.662 187.204 C 131.136 186.652,133.453 183.860,135.810 181.000 C 138.167 178.140,140.773 174.990,141.600 174.000 C 142.427 173.010,145.033 169.860,147.390 167.000 C 149.747 164.140,152.064 161.348,152.538 160.796 C 153.012 160.244,154.208 158.804,155.195 157.596 C 156.181 156.388,157.088 155.310,157.209 155.200 C 157.330 155.090,158.556 153.609,159.933 151.908 C 165.436 145.116,170.865 141.133,177.200 139.244 C 178.190 138.948,179.540 138.509,180.200 138.267 C 182.433 137.449,227.949 137.402,228.262 138.217 C 228.402 138.582,228.355 138.998,228.158 139.140 C 227.961 139.283,226.630 140.750,225.200 142.400 C 223.770 144.050,222.509 145.490,222.397 145.600 C 222.284 145.710,219.679 148.680,216.607 152.200 C 213.535 155.720,210.836 158.800,210.611 159.045 C 210.385 159.290,209.286 160.550,208.169 161.845 C 203.859 166.842,194.632 177.410,194.411 177.600 C 194.284 177.710,192.479 179.780,190.400 182.200 C 188.321 184.620,186.519 186.690,186.396 186.800 C 186.273 186.910,184.845 188.530,183.223 190.400 C 181.600 192.270,179.176 195.041,177.836 196.557 C 176.496 198.073,175.073 199.693,174.673 200.157 C 172.089 203.157,169.388 206.221,167.855 207.890 L 166.710 209.138 169.420 214.069 C 170.910 216.781,172.486 219.630,172.921 220.400 C 173.654 221.696,174.221 222.712,176.599 227.000 C 177.087 227.880,177.844 229.230,178.279 230.000 C 178.715 230.770,181.381 235.540,184.202 240.600 C 187.024 245.660,189.690 250.430,190.128 251.200 C 190.566 251.970,191.448 253.586,192.088 254.791 C 192.729 255.996,193.395 257.166,193.568 257.391 C 193.742 257.616,194.566 259.060,195.401 260.600 C 196.235 262.140,198.035 265.380,199.401 267.800 C 200.768 270.220,202.476 273.280,203.198 274.600 C 204.956 277.814,206.101 279.875,207.200 281.800 C 207.702 282.680,208.538 284.165,209.057 285.100 C 209.575 286.035,210.425 287.565,210.943 288.500 C 211.462 289.435,212.295 290.920,212.793 291.800 C 218.224 301.389,222.000 308.424,222.000 308.955 C 222.000 309.550,219.681 309.597,194.726 309.503 L 167.451 309.400 165.297 305.400 C 164.113 303.200,162.101 299.420,160.827 297.000 C 158.041 291.708,154.357 284.840,151.601 279.800 C 151.000 278.700,149.650 276.180,148.602 274.200 C 147.554 272.220,146.021 269.340,145.197 267.800 C 144.372 266.260,142.979 263.650,142.102 262.000 C 139.129 256.410,137.522 253.410,135.692 250.038 L 133.868 246.677 132.471 248.238 C 131.702 249.097,130.337 250.610,129.437 251.600 C 127.991 253.190,124.750 256.840,120.400 261.780 C 119.630 262.654,118.100 264.341,117.000 265.529 L 115.000 267.688 114.800 288.544 L 114.600 309.400 92.700 309.503 L 70.800 309.607 70.800 195.037 C 70.800 103.755,70.902 80.426,71.300 80.265 C 72.021 79.974,113.411 79.953,114.167 80.243 M368.000 138.720 C 368.000 139.116,367.846 139.611,367.659 139.820 C 367.471 140.029,365.283 144.160,362.796 149.000 C 360.309 153.840,357.294 159.690,356.095 162.000 C 354.896 164.310,352.380 169.170,350.504 172.800 C 348.628 176.430,346.149 181.200,344.995 183.400 C 343.841 185.600,341.594 189.920,340.002 193.000 C 336.182 200.390,331.681 209.071,328.597 215.000 C 327.223 217.640,324.706 222.500,323.003 225.800 C 317.031 237.369,313.472 244.235,311.394 248.200 C 310.241 250.400,307.994 254.720,306.402 257.800 C 304.810 260.880,302.201 265.920,300.603 269.000 C 297.431 275.118,293.192 283.300,288.999 291.400 C 278.266 312.131,279.542 310.296,277.942 307.300 C 274.564 300.976,263.764 280.567,259.867 273.143 C 258.638 270.802,257.203 268.102,256.678 267.143 C 256.153 266.184,254.590 263.240,253.203 260.600 C 251.817 257.960,250.012 254.540,249.191 253.000 C 248.370 251.460,246.754 248.400,245.600 246.200 C 244.446 244.000,242.826 240.940,242.001 239.400 C 241.176 237.860,238.655 233.090,236.399 228.800 C 234.144 224.510,231.717 219.920,231.006 218.600 C 229.789 216.341,228.120 213.174,222.891 203.200 C 221.680 200.890,220.379 198.460,219.998 197.800 C 219.618 197.140,217.996 194.080,216.394 191.000 C 214.791 187.920,213.051 184.617,212.525 183.659 C 211.726 182.202,211.654 181.811,212.085 181.261 C 212.607 180.595,225.867 165.373,228.166 162.800 C 228.854 162.030,231.934 158.520,235.009 155.000 C 238.084 151.480,240.870 148.387,241.200 148.127 C 242.629 147.001,245.650 151.419,252.193 164.200 C 256.816 173.229,260.219 179.841,266.397 191.800 C 268.102 195.100,271.614 201.940,274.203 207.000 C 276.791 212.060,279.044 216.351,279.210 216.536 C 279.376 216.721,281.137 213.571,283.122 209.536 C 296.275 182.811,318.089 138.974,318.457 138.531 C 319.247 137.579,368.000 137.765,368.000 138.720 " stroke="none" fill="#fbfbfb" fill-rule="evenodd"></path><path id="path3" d="M92.800 80.395 L 114.200 80.600 114.301 143.181 C 114.358 178.380,114.556 205.916,114.753 206.113 C 114.955 206.315,117.629 203.422,121.023 199.332 C 124.279 195.409,127.742 191.255,128.720 190.100 C 129.697 188.945,130.340 188.007,130.149 188.015 C 129.957 188.023,129.333 188.646,128.762 189.399 C 128.192 190.152,127.003 191.631,126.120 192.684 C 121.525 198.171,119.971 200.052,117.842 202.700 C 116.559 204.295,115.350 205.600,115.155 205.600 C 114.950 205.600,114.800 179.187,114.800 143.043 C 114.800 86.368,114.741 80.463,114.167 80.243 C 113.819 80.109,104.054 80.043,92.467 80.095 L 71.400 80.189 92.800 80.395 M205.900 137.900 C 218.055 137.959,228.000 138.160,228.000 138.347 C 228.000 138.534,226.636 140.242,224.970 142.143 C 223.303 144.045,222.088 145.591,222.270 145.581 C 222.451 145.570,223.366 144.625,224.302 143.481 C 225.238 142.336,226.559 140.807,227.238 140.083 C 229.653 137.506,230.396 137.590,205.913 137.697 L 183.800 137.793 205.900 137.900 M180.200 138.410 C 179.666 138.647,179.998 138.686,181.200 138.527 C 182.190 138.396,183.075 138.224,183.167 138.144 C 183.514 137.843,180.964 138.072,180.200 138.410 M318.457 138.531 C 318.089 138.974,296.275 182.811,283.122 209.536 C 281.137 213.571,279.376 216.721,279.210 216.536 C 279.044 216.351,276.791 212.060,274.203 207.000 C 271.614 201.940,268.102 195.100,266.397 191.800 C 260.219 179.841,256.816 173.229,252.193 164.200 C 245.650 151.419,242.629 147.001,241.200 148.127 C 240.870 148.387,238.084 151.480,235.009 155.000 C 231.934 158.520,228.854 162.030,228.166 162.800 C 225.867 165.373,212.607 180.595,212.085 181.261 C 211.654 181.811,211.726 182.202,212.525 183.659 C 213.051 184.617,214.791 187.920,216.394 191.000 C 217.996 194.080,219.618 197.140,219.998 197.800 C 220.379 198.460,221.680 200.890,222.891 203.200 C 228.120 213.174,229.789 216.341,231.006 218.600 C 231.717 219.920,234.144 224.510,236.399 228.800 C 238.655 233.090,241.176 237.860,242.001 239.400 C 242.826 240.940,244.446 244.000,245.600 246.200 C 246.754 248.400,248.370 251.460,249.191 253.000 C 250.012 254.540,251.817 257.960,253.203 260.600 C 254.590 263.240,256.153 266.184,256.678 267.143 C 257.203 268.102,258.638 270.802,259.867 273.143 C 263.764 280.567,274.564 300.976,277.942 307.300 C 279.542 310.296,278.266 312.131,288.999 291.400 C 293.192 283.300,297.431 275.118,300.603 269.000 C 302.201 265.920,304.810 260.880,306.402 257.800 C 307.994 254.720,310.241 250.400,311.394 248.200 C 313.472 244.235,317.031 237.369,323.003 225.800 C 324.706 222.500,327.223 217.640,328.597 215.000 C 331.681 209.071,336.182 200.390,340.002 193.000 C 341.594 189.920,343.841 185.600,344.995 183.400 C 346.149 181.200,348.628 176.430,350.504 172.800 C 352.380 169.170,354.896 164.310,356.095 162.000 C 357.294 159.690,360.309 153.840,362.796 149.000 C 365.283 144.160,367.471 140.029,367.659 139.820 C 367.846 139.611,368.000 139.116,368.000 138.720 C 368.000 137.765,319.247 137.579,318.457 138.531 M367.314 139.100 C 367.171 139.485,366.664 140.520,366.186 141.400 C 365.709 142.280,363.559 146.420,361.407 150.600 C 359.256 154.780,356.371 160.360,354.997 163.000 C 350.545 171.553,347.361 177.684,344.404 183.400 C 340.145 191.634,335.828 199.959,332.996 205.400 C 331.622 208.040,329.014 213.080,327.200 216.600 C 325.386 220.120,322.774 225.160,321.397 227.800 C 320.019 230.440,317.611 235.076,316.046 238.102 C 314.480 241.129,312.008 245.899,310.553 248.702 C 309.097 251.506,306.554 256.410,304.900 259.600 C 303.247 262.790,300.770 267.560,299.396 270.200 C 298.022 272.840,295.414 277.880,293.600 281.400 C 291.786 284.920,289.176 289.960,287.800 292.600 C 286.424 295.240,284.085 299.740,282.602 302.600 C 281.119 305.460,279.776 307.943,279.616 308.117 C 279.197 308.575,278.813 307.979,275.802 302.200 C 274.311 299.340,272.601 296.100,272.001 295.000 C 271.402 293.900,269.781 290.840,268.400 288.200 C 267.019 285.560,264.363 280.520,262.497 277.000 C 260.631 273.480,258.199 268.890,257.093 266.800 C 255.986 264.710,254.594 262.100,253.999 261.000 C 253.404 259.900,251.515 256.300,249.803 253.000 C 248.091 249.700,246.377 246.460,245.995 245.800 C 245.612 245.140,244.265 242.620,243.000 240.200 C 241.735 237.780,239.936 234.360,239.002 232.600 C 238.068 230.840,236.402 227.690,235.300 225.600 C 233.223 221.661,227.720 211.268,224.393 205.000 C 221.003 198.612,219.580 195.910,216.495 190.000 C 214.829 186.810,213.227 183.845,212.933 183.411 C 212.640 182.977,212.400 182.371,212.400 182.065 C 212.400 181.652,219.202 173.490,220.788 172.000 C 220.905 171.890,222.170 170.450,223.600 168.800 C 225.030 167.150,226.292 165.710,226.406 165.600 C 226.520 165.490,229.704 161.869,233.481 157.554 C 237.259 153.239,240.636 149.421,240.986 149.071 C 242.734 147.323,243.922 149.270,259.006 178.600 C 260.704 181.900,263.715 187.750,265.699 191.600 C 267.682 195.450,270.696 201.300,272.396 204.600 C 274.096 207.900,276.253 212.085,277.188 213.900 C 278.124 215.715,279.143 217.200,279.453 217.200 C 279.791 217.200,281.910 213.330,284.763 207.500 C 287.374 202.165,295.486 185.740,302.790 171.000 C 310.094 156.260,316.703 142.895,317.476 141.300 L 318.882 138.400 343.228 138.400 C 366.248 138.400,367.561 138.438,367.314 139.100 M171.900 141.426 C 170.855 141.970,170.000 142.505,170.000 142.614 C 170.000 142.793,173.960 140.923,174.367 140.552 C 174.862 140.101,173.561 140.562,171.900 141.426 M166.156 145.293 C 163.933 147.217,163.027 148.170,160.733 151.000 C 159.582 152.419,159.809 152.245,161.515 150.400 C 162.837 148.970,164.971 146.855,166.259 145.701 C 169.047 143.201,168.962 142.865,166.156 145.293 M216.221 152.184 C 213.239 155.585,210.800 158.467,210.800 158.589 C 210.800 158.711,212.189 157.233,213.886 155.305 C 215.584 153.377,218.126 150.495,219.535 148.900 C 220.945 147.305,221.995 146.000,221.870 146.000 C 221.744 146.000,219.202 148.783,216.221 152.184 M155.727 156.912 C 155.026 157.841,154.126 158.960,153.725 159.400 C 151.998 161.299,147.549 166.800,147.742 166.800 C 147.858 166.800,149.706 164.685,151.848 162.100 C 153.990 159.515,156.194 156.905,156.746 156.300 C 157.298 155.695,157.581 155.206,157.375 155.212 C 157.169 155.219,156.427 155.984,155.727 156.912 M209.000 160.400 C 208.368 161.060,208.019 161.590,208.225 161.578 C 208.578 161.557,210.639 159.200,210.305 159.200 C 210.220 159.200,209.632 159.740,209.000 160.400 M204.764 165.300 C 201.677 168.838,200.896 169.725,196.664 174.508 C 195.159 176.209,194.079 177.588,194.264 177.574 C 194.449 177.560,195.473 176.525,196.539 175.274 C 197.606 174.023,200.632 170.525,203.265 167.500 C 205.897 164.475,207.959 162.000,207.847 162.000 C 207.736 162.000,206.348 163.485,204.764 165.300 M146.349 168.300 C 144.477 170.357,141.798 173.764,142.287 173.466 C 142.555 173.303,143.872 171.826,145.213 170.184 C 147.648 167.204,148.241 166.220,146.349 168.300 M138.942 177.122 C 137.590 178.815,135.106 181.865,133.422 183.900 C 131.738 185.935,130.450 187.600,130.560 187.600 C 130.670 187.600,132.956 184.945,135.639 181.700 C 138.322 178.455,140.882 175.395,141.328 174.900 C 141.774 174.405,141.973 174.010,141.770 174.022 C 141.566 174.034,140.294 175.429,138.942 177.122 M184.022 189.000 C 178.719 195.050,174.565 200.000,174.790 200.000 C 175.016 200.000,175.202 199.865,175.204 199.700 C 175.207 199.535,175.884 198.680,176.709 197.800 C 177.535 196.920,180.000 194.130,182.188 191.600 C 184.376 189.070,186.268 186.910,186.393 186.800 C 187.053 186.218,194.026 178.000,193.860 178.000 C 193.752 178.000,189.324 182.950,184.022 189.000 M173.000 201.600 C 172.368 202.260,172.019 202.790,172.225 202.778 C 172.578 202.757,174.639 200.400,174.305 200.400 C 174.220 200.400,173.632 200.940,173.000 201.600 M170.054 204.834 C 169.313 205.695,168.863 206.385,169.054 206.366 C 169.244 206.348,170.006 205.628,170.746 204.766 C 171.487 203.905,171.937 203.215,171.746 203.234 C 171.556 203.252,170.794 203.972,170.054 204.834 M167.442 207.956 C 166.413 209.030,166.680 211.600,167.821 211.600 C 167.931 211.600,167.731 211.040,167.377 210.356 C 166.751 209.146,166.764 209.082,167.842 207.956 C 168.451 207.320,168.860 206.800,168.750 206.800 C 168.640 206.800,168.051 207.320,167.442 207.956 M168.000 212.150 C 168.000 212.441,170.071 216.000,170.241 216.000 C 170.336 216.000,169.957 215.100,169.400 214.000 C 168.531 212.286,168.000 211.583,168.000 212.150 M171.000 217.600 C 171.341 218.260,171.711 218.800,171.821 218.800 C 171.931 218.800,171.741 218.260,171.400 217.600 C 171.059 216.940,170.689 216.400,170.579 216.400 C 170.469 216.400,170.659 216.940,171.000 217.600 M173.386 221.900 C 173.735 222.615,174.106 223.200,174.210 223.200 C 174.608 223.200,174.352 222.563,173.567 221.600 L 172.752 220.600 173.386 221.900 M175.000 224.800 C 175.341 225.460,175.711 226.000,175.821 226.000 C 175.931 226.000,175.741 225.460,175.400 224.800 C 175.059 224.140,174.689 223.600,174.579 223.600 C 174.469 223.600,174.659 224.140,175.000 224.800 M177.160 228.600 C 177.834 229.905,178.388 230.628,178.385 230.200 C 178.383 229.980,178.014 229.350,177.564 228.800 C 177.021 228.136,176.885 228.069,177.160 228.600 M179.000 232.000 C 179.341 232.660,179.711 233.200,179.821 233.200 C 179.931 233.200,179.741 232.660,179.400 232.000 C 179.059 231.340,178.689 230.800,178.579 230.800 C 178.469 230.800,178.659 231.340,179.000 232.000 M181.391 236.200 C 182.225 237.740,183.091 239.180,183.316 239.400 C 183.541 239.620,183.043 238.540,182.209 237.000 C 181.375 235.460,180.509 234.020,180.284 233.800 C 180.059 233.580,180.557 234.660,181.391 236.200 M184.600 242.000 C 185.157 243.100,185.703 244.000,185.813 244.000 C 185.923 244.000,185.557 243.100,185.000 242.000 C 184.443 240.900,183.897 240.000,183.787 240.000 C 183.677 240.000,184.043 240.900,184.600 242.000 M186.600 245.600 C 186.941 246.260,187.311 246.800,187.421 246.800 C 187.531 246.800,187.341 246.260,187.000 245.600 C 186.659 244.940,186.289 244.400,186.179 244.400 C 186.069 244.400,186.259 244.940,186.600 245.600 M130.629 249.781 C 128.922 251.661,127.628 253.200,127.754 253.200 C 127.967 253.200,128.706 252.422,132.472 248.231 L 133.882 246.662 136.172 250.931 C 137.432 253.279,138.554 255.200,138.666 255.200 C 138.935 255.200,134.846 247.549,134.220 246.881 C 133.828 246.463,133.127 247.029,130.629 249.781 M188.200 248.400 C 188.541 249.060,188.911 249.600,189.021 249.600 C 189.131 249.600,188.941 249.060,188.600 248.400 C 188.259 247.740,187.889 247.200,187.779 247.200 C 187.669 247.200,187.859 247.740,188.200 248.400 M190.586 252.700 C 190.935 253.415,191.306 254.000,191.410 254.000 C 191.808 254.000,191.552 253.363,190.767 252.400 L 189.952 251.400 190.586 252.700 M124.212 257.000 C 122.514 258.870,121.277 260.385,121.462 260.367 C 121.812 260.334,127.798 253.600,127.479 253.600 C 127.379 253.600,125.909 255.130,124.212 257.000 M139.609 257.500 C 139.614 257.665,139.985 258.250,140.433 258.800 L 141.248 259.800 140.614 258.500 C 140.011 257.265,139.589 256.845,139.609 257.500 M194.220 259.240 C 194.789 260.362,195.334 261.199,195.433 261.101 C 195.623 260.910,193.651 257.200,193.359 257.200 C 193.264 257.200,193.652 258.118,194.220 259.240 M117.637 264.407 L 114.400 268.013 114.400 288.573 C 114.400 302.215,114.262 309.202,113.990 309.337 C 113.764 309.449,113.810 309.494,114.090 309.437 C 114.492 309.355,114.642 304.934,114.800 288.482 L 115.000 267.630 116.805 265.715 C 120.258 262.051,121.355 260.800,121.116 260.800 C 120.983 260.800,119.418 262.423,117.637 264.407 M196.200 262.800 C 196.541 263.460,196.911 264.000,197.021 264.000 C 197.131 264.000,196.941 263.460,196.600 262.800 C 196.259 262.140,195.889 261.600,195.779 261.600 C 195.669 261.600,195.859 262.140,196.200 262.800 M143.800 265.200 C 144.357 266.300,144.903 267.200,145.013 267.200 C 145.123 267.200,144.757 266.300,144.200 265.200 C 143.643 264.100,143.097 263.200,142.987 263.200 C 142.877 263.200,143.243 264.100,143.800 265.200 M198.591 267.000 C 199.425 268.540,200.291 269.980,200.516 270.200 C 200.741 270.420,200.243 269.340,199.409 267.800 C 198.575 266.260,197.709 264.820,197.484 264.600 C 197.259 264.380,197.757 265.460,198.591 267.000 M147.000 271.200 C 147.557 272.300,148.103 273.200,148.213 273.200 C 148.323 273.200,147.957 272.300,147.400 271.200 C 146.843 270.100,146.297 269.200,146.187 269.200 C 146.077 269.200,146.443 270.100,147.000 271.200 M201.820 272.840 C 202.389 273.962,202.934 274.799,203.033 274.701 C 203.223 274.510,201.251 270.800,200.959 270.800 C 200.864 270.800,201.252 271.718,201.820 272.840 M151.394 279.400 C 152.667 281.820,153.890 283.980,154.113 284.200 C 154.336 284.420,153.478 282.620,152.206 280.200 C 150.933 277.780,149.710 275.620,149.487 275.400 C 149.264 275.180,150.122 276.980,151.394 279.400 M203.800 276.400 C 204.141 277.060,204.511 277.600,204.621 277.600 C 204.731 277.600,204.541 277.060,204.200 276.400 C 203.859 275.740,203.489 275.200,203.379 275.200 C 203.269 275.200,203.459 275.740,203.800 276.400 M207.786 283.500 C 208.135 284.215,208.506 284.800,208.610 284.800 C 209.008 284.800,208.752 284.163,207.967 283.200 L 207.152 282.200 207.786 283.500 M154.406 284.850 C 154.397 285.205,156.433 288.800,156.642 288.800 C 156.738 288.800,156.460 288.125,156.024 287.300 C 155.078 285.511,154.415 284.506,154.406 284.850 M209.400 286.400 C 209.741 287.060,210.111 287.600,210.221 287.600 C 210.331 287.600,210.141 287.060,209.800 286.400 C 209.459 285.740,209.089 285.200,208.979 285.200 C 208.869 285.200,209.059 285.740,209.400 286.400 M211.560 290.200 C 212.234 291.505,212.788 292.228,212.785 291.800 C 212.783 291.580,212.414 290.950,211.964 290.400 C 211.421 289.736,211.285 289.669,211.560 290.200 M212.917 292.700 C 215.149 296.772,217.727 301.200,217.866 301.200 C 217.966 301.200,217.973 301.065,217.883 300.900 C 215.651 296.828,213.073 292.400,212.934 292.400 C 212.834 292.400,212.827 292.535,212.917 292.700 M162.600 300.400 C 163.157 301.500,163.703 302.400,163.813 302.400 C 163.923 302.400,163.557 301.500,163.000 300.400 C 162.443 299.300,161.897 298.400,161.787 298.400 C 161.677 298.400,162.043 299.300,162.600 300.400 M218.000 301.750 C 218.000 302.041,220.071 305.600,220.241 305.600 C 220.336 305.600,219.957 304.700,219.400 303.600 C 218.531 301.886,218.000 301.183,218.000 301.750 M165.400 305.600 C 166.176 307.140,166.900 308.400,167.010 308.400 C 167.120 308.400,166.576 307.140,165.800 305.600 C 165.024 304.060,164.300 302.800,164.190 302.800 C 164.080 302.800,164.624 304.060,165.400 305.600 M221.078 307.395 C 221.444 308.162,221.814 308.719,221.901 308.632 C 222.084 308.449,220.870 306.000,220.596 306.000 C 220.495 306.000,220.712 306.628,221.078 307.395 " stroke="none" fill="#99aebb" fill-rule="evenodd"></path><path id="path4" d="M71.200 80.697 C 71.200 80.863,80.830 80.952,92.600 80.893 L 114.000 80.786 114.000 143.993 C 114.000 213.936,113.779 208.828,116.650 205.300 C 117.500 204.255,118.582 202.950,119.054 202.400 C 119.527 201.850,121.395 199.600,123.206 197.400 C 125.017 195.200,127.176 192.590,128.005 191.600 C 128.834 190.610,131.443 187.460,133.804 184.600 C 136.164 181.740,138.771 178.590,139.597 177.600 C 140.422 176.610,142.885 173.640,145.069 171.000 C 163.219 149.065,164.758 147.295,167.441 145.282 C 171.910 141.929,176.722 139.717,181.200 138.959 C 182.190 138.791,182.691 138.585,182.314 138.500 C 181.092 138.227,176.690 139.570,172.999 141.341 C 166.977 144.232,165.030 146.128,152.600 161.209 C 149.080 165.480,144.926 170.510,143.370 172.387 C 141.813 174.264,136.065 181.200,130.596 187.800 C 125.127 194.400,119.404 201.300,117.879 203.133 C 116.285 205.048,114.956 206.316,114.754 206.114 C 114.556 205.916,114.358 178.456,114.301 143.181 L 114.200 80.600 92.700 80.497 C 80.875 80.440,71.200 80.530,71.200 80.697 M70.899 194.726 C 70.831 272.263,70.931 308.297,71.214 308.826 C 71.628 309.600,111.828 310.102,113.767 309.357 C 114.333 309.140,114.400 306.935,114.400 288.576 L 114.400 268.037 124.055 257.188 C 131.936 248.332,133.802 246.436,134.211 246.869 C 134.486 247.161,136.287 250.370,138.212 254.000 C 140.136 257.630,142.292 261.680,143.003 263.000 C 143.713 264.320,145.038 266.795,145.947 268.500 C 146.856 270.205,148.299 272.905,149.153 274.500 C 154.764 284.977,156.512 288.247,158.396 291.800 C 159.563 294.000,160.912 296.520,161.392 297.400 C 161.873 298.280,163.403 301.160,164.791 303.800 C 166.179 306.440,167.594 308.825,167.934 309.100 C 168.589 309.629,220.023 309.873,221.378 309.353 C 222.027 309.104,221.819 308.639,218.002 301.800 C 217.634 301.140,215.024 296.460,212.202 291.400 C 209.381 286.340,206.771 281.660,206.402 281.000 C 202.773 274.497,198.727 267.255,195.005 260.600 C 192.544 256.200,189.931 251.520,189.198 250.200 C 183.024 239.086,174.457 223.772,173.353 221.879 C 172.609 220.602,172.000 219.485,172.000 219.396 C 172.000 219.308,171.492 218.372,170.871 217.318 C 170.250 216.263,168.978 213.998,168.044 212.284 L 166.346 209.168 168.872 206.284 C 170.262 204.698,171.494 203.310,171.610 203.200 C 171.726 203.090,178.024 195.890,185.606 187.200 C 193.189 178.510,199.957 170.770,200.648 170.000 C 207.082 162.828,228.000 138.625,228.000 138.352 C 228.000 138.152,218.240 138.042,205.500 138.097 L 183.000 138.193 205.100 138.300 C 217.255 138.359,227.200 138.551,227.200 138.728 C 227.200 138.905,226.881 139.398,226.491 139.825 C 226.102 140.251,222.473 144.380,218.428 149.000 C 214.382 153.620,210.046 158.570,208.792 160.000 C 207.537 161.430,203.763 165.750,200.405 169.600 C 197.046 173.450,193.302 177.737,192.085 179.127 C 174.205 199.535,166.272 208.683,166.122 209.066 C 166.023 209.322,167.097 211.572,168.509 214.066 C 169.921 216.559,171.669 219.680,172.393 221.000 C 173.117 222.320,174.380 224.570,175.200 226.000 C 176.020 227.430,177.237 229.590,177.904 230.800 C 178.571 232.010,181.629 237.500,184.699 243.000 C 191.639 255.434,192.165 256.377,193.400 258.600 C 193.950 259.590,194.877 261.255,195.459 262.300 C 196.042 263.345,198.324 267.440,200.530 271.400 C 202.737 275.360,205.050 279.463,205.671 280.518 C 206.292 281.572,206.800 282.509,206.800 282.600 C 206.800 282.691,207.307 283.628,207.927 284.682 C 208.547 285.737,209.711 287.799,210.515 289.265 C 211.318 290.731,214.051 295.638,216.588 300.170 C 219.125 304.701,221.200 308.587,221.200 308.805 C 221.200 309.061,211.933 309.200,194.805 309.200 L 168.410 309.200 167.478 307.700 C 166.966 306.875,165.315 303.860,163.810 301.000 C 162.304 298.140,160.678 295.080,160.195 294.200 C 159.713 293.320,158.365 290.800,157.200 288.600 C 156.035 286.400,154.592 283.700,153.993 282.600 C 152.362 279.600,150.358 275.859,147.995 271.400 C 146.829 269.200,145.385 266.500,144.786 265.400 C 144.186 264.300,142.930 261.960,141.994 260.200 C 141.058 258.440,139.517 255.543,138.570 253.763 C 133.665 244.545,134.364 244.863,129.994 249.857 C 128.127 251.991,126.417 253.931,126.194 254.169 C 125.709 254.683,117.044 264.427,115.371 266.338 L 114.200 267.676 114.000 288.338 L 113.800 309.000 92.700 309.104 C 81.095 309.160,71.556 309.160,71.502 309.104 C 71.448 309.047,71.312 257.790,71.200 195.200 L 70.997 81.400 70.899 194.726 " stroke="none" fill="#848484" fill-rule="evenodd"></path></g></svg>